<mxfile host="app.diagrams.net" agent="Mozilla/5.0 (Windows NT 10.0; Win64; x64) AppleWebKit/537.36 (KHTML, like Gecko) Chrome/131.0.0.0 Safari/537.36" version="25.0.1">
  <diagram name="Page-1" id="zwQ8PL1RwlctHqcjG0Bs">
    <mxGraphModel dx="1050" dy="569" grid="1" gridSize="10" guides="1" tooltips="1" connect="1" arrows="1" fold="1" page="1" pageScale="1" pageWidth="827" pageHeight="1169" math="0" shadow="0">
      <root>
        <mxCell id="0" />
        <mxCell id="1" parent="0" />
        <mxCell id="VORAo5SVlrjPvrXH9UD6-3" value="properties" style="swimlane;fontStyle=0;childLayout=stackLayout;horizontal=1;startSize=30;horizontalStack=0;resizeParent=1;resizeParentMax=0;resizeLast=0;collapsible=1;marginBottom=0;whiteSpace=wrap;html=1;" vertex="1" parent="1">
          <mxGeometry x="324" y="100" width="216" height="190" as="geometry" />
        </mxCell>
        <mxCell id="VORAo5SVlrjPvrXH9UD6-6" value="&lt;br&gt;&lt;span class=&quot;hljs-operator&quot;&gt;-&lt;/span&gt; area: &lt;span class=&quot;hljs-keyword&quot;&gt;double&lt;/span&gt;&amp;nbsp;&lt;br&gt;&amp;nbsp;&lt;span class=&quot;hljs-operator&quot;&gt;-&lt;/span&gt; numberOfRooms: &lt;span class=&quot;hljs-type&quot;&gt;int&lt;/span&gt;&amp;nbsp;&lt;br&gt;&lt;div style=&quot;text-align: center;&quot;&gt;&lt;span style=&quot;background-color: initial;&quot;&gt;&amp;nbsp;&lt;/span&gt;&lt;span style=&quot;background-color: initial;&quot; class=&quot;hljs-operator&quot;&gt;-&lt;/span&gt;&lt;span style=&quot;background-color: initial;&quot;&gt; neighborhoodName: String&amp;nbsp;&lt;/span&gt;&lt;/div&gt;&amp;nbsp;&lt;span class=&quot;hljs-operator&quot;&gt;-&lt;/span&gt; price: &lt;span class=&quot;hljs-keyword&quot;&gt;double&lt;/span&gt;&lt;div&gt;&lt;br/&gt;&lt;/div&gt;" style="text;strokeColor=none;fillColor=none;align=left;verticalAlign=middle;spacingLeft=4;spacingRight=4;overflow=hidden;points=[[0,0.5],[1,0.5]];portConstraint=eastwest;rotatable=0;whiteSpace=wrap;html=1;" vertex="1" parent="VORAo5SVlrjPvrXH9UD6-3">
          <mxGeometry y="30" width="216" height="90" as="geometry" />
        </mxCell>
        <mxCell id="VORAo5SVlrjPvrXH9UD6-16" value="" style="endArrow=none;html=1;rounded=0;entryX=1.002;entryY=0.26;entryDx=0;entryDy=0;entryPerimeter=0;exitX=0.002;exitY=0.191;exitDx=0;exitDy=0;exitPerimeter=0;" edge="1" parent="VORAo5SVlrjPvrXH9UD6-3" source="VORAo5SVlrjPvrXH9UD6-15" target="VORAo5SVlrjPvrXH9UD6-15">
          <mxGeometry width="50" height="50" relative="1" as="geometry">
            <mxPoint x="6" y="130" as="sourcePoint" />
            <mxPoint x="56" y="80" as="targetPoint" />
          </mxGeometry>
        </mxCell>
        <mxCell id="VORAo5SVlrjPvrXH9UD6-15" value="&lt;span class=&quot;hljs-operator&quot;&gt;+&lt;/span&gt; Property(&lt;span class=&quot;hljs-keyword&quot;&gt;double&lt;/span&gt;, &lt;span class=&quot;hljs-type&quot;&gt;int&lt;/span&gt;, String, &lt;span class=&quot;hljs-keyword&quot;&gt;double&lt;/span&gt;)&amp;nbsp;&lt;br&gt;&amp;nbsp;&lt;span class=&quot;hljs-operator&quot;&gt;+&lt;/span&gt; display(): void&amp;nbsp;&amp;nbsp;" style="text;strokeColor=none;fillColor=none;align=left;verticalAlign=middle;spacingLeft=4;spacingRight=4;overflow=hidden;points=[[0,0.5],[1,0.5]];portConstraint=eastwest;rotatable=0;whiteSpace=wrap;html=1;" vertex="1" parent="VORAo5SVlrjPvrXH9UD6-3">
          <mxGeometry y="120" width="216" height="70" as="geometry" />
        </mxCell>
        <mxCell id="VORAo5SVlrjPvrXH9UD6-7" value="villa" style="swimlane;fontStyle=0;childLayout=stackLayout;horizontal=1;startSize=30;horizontalStack=0;resizeParent=1;resizeParentMax=0;resizeLast=0;collapsible=1;marginBottom=0;whiteSpace=wrap;html=1;" vertex="1" parent="1">
          <mxGeometry x="154" y="340" width="200" height="210" as="geometry" />
        </mxCell>
        <mxCell id="VORAo5SVlrjPvrXH9UD6-17" value="" style="endArrow=none;html=1;rounded=0;entryX=1;entryY=0.557;entryDx=0;entryDy=0;entryPerimeter=0;" edge="1" parent="VORAo5SVlrjPvrXH9UD6-7" target="VORAo5SVlrjPvrXH9UD6-8">
          <mxGeometry width="50" height="50" relative="1" as="geometry">
            <mxPoint y="130" as="sourcePoint" />
            <mxPoint x="50" y="80" as="targetPoint" />
          </mxGeometry>
        </mxCell>
        <mxCell id="VORAo5SVlrjPvrXH9UD6-8" value="&lt;span class=&quot;hljs-operator&quot;&gt;-&lt;/span&gt; hasSwimmingPool: &lt;span class=&quot;hljs-type&quot;&gt;boolean&lt;/span&gt;&amp;nbsp;&lt;br&gt;&lt;span class=&quot;hljs-operator&quot;&gt;-&lt;/span&gt; numberOfAdjacentStreets: &lt;span class=&quot;hljs-type&quot;&gt;int&lt;/span&gt;&amp;nbsp;&lt;br&gt;&amp;nbsp;&lt;span class=&quot;hljs-operator&quot;&gt;-&lt;/span&gt; floor: &lt;span class=&quot;hljs-type&quot;&gt;int&lt;/span&gt;&amp;nbsp;&lt;br&gt;&amp;nbsp;&lt;br&gt;&lt;br&gt;&amp;nbsp;&lt;span class=&quot;hljs-operator&quot;&gt;+&lt;/span&gt; Villa(&lt;span class=&quot;hljs-keyword&quot;&gt;double&lt;/span&gt;, &lt;span class=&quot;hljs-type&quot;&gt;int&lt;/span&gt;, String, &lt;span class=&quot;hljs-keyword&quot;&gt;double&lt;/span&gt;, &lt;span class=&quot;hljs-type&quot;&gt;boolean&lt;/span&gt;, &lt;span class=&quot;hljs-type&quot;&gt;int&lt;/span&gt;)&amp;nbsp;&lt;div&gt;&lt;br&gt;&amp;nbsp;&lt;span class=&quot;hljs-operator&quot;&gt;+&lt;/span&gt; display(): void&amp;nbsp;&lt;/div&gt;" style="text;strokeColor=none;fillColor=none;align=left;verticalAlign=middle;spacingLeft=4;spacingRight=4;overflow=hidden;points=[[0,0.5],[1,0.5]];portConstraint=eastwest;rotatable=0;whiteSpace=wrap;html=1;" vertex="1" parent="VORAo5SVlrjPvrXH9UD6-7">
          <mxGeometry y="30" width="200" height="180" as="geometry" />
        </mxCell>
        <mxCell id="VORAo5SVlrjPvrXH9UD6-11" value="FurnishedApartment" style="swimlane;fontStyle=0;childLayout=stackLayout;horizontal=1;startSize=30;horizontalStack=0;resizeParent=1;resizeParentMax=0;resizeLast=0;collapsible=1;marginBottom=0;whiteSpace=wrap;html=1;" vertex="1" parent="1">
          <mxGeometry x="540" y="660" width="210" height="170" as="geometry" />
        </mxCell>
        <mxCell id="VORAo5SVlrjPvrXH9UD6-12" value="&lt;br&gt;&lt;span class=&quot;hljs-operator&quot;&gt;-&lt;/span&gt; furnitureQuality: &lt;span class=&quot;hljs-type&quot;&gt;int&lt;/span&gt;&amp;nbsp;&lt;br&gt;&lt;br&gt;&amp;nbsp;&lt;span class=&quot;hljs-operator&quot;&gt;+&lt;/span&gt; FurnishedApartment(&lt;span class=&quot;hljs-keyword&quot;&gt;double&lt;/span&gt;, &lt;span class=&quot;hljs-type&quot;&gt;int&lt;/span&gt;, String, &lt;span class=&quot;hljs-keyword&quot;&gt;double&lt;/span&gt;, &lt;span class=&quot;hljs-type&quot;&gt;boolean&lt;/span&gt;, &lt;span class=&quot;hljs-type&quot;&gt;int&lt;/span&gt;)&amp;nbsp;&lt;div&gt;&lt;br&gt;&amp;nbsp;&lt;span class=&quot;hljs-operator&quot;&gt;+&lt;/span&gt; display(): void &lt;br&gt;&lt;br&gt;&lt;/div&gt;" style="text;strokeColor=none;fillColor=none;align=left;verticalAlign=middle;spacingLeft=4;spacingRight=4;overflow=hidden;points=[[0,0.5],[1,0.5]];portConstraint=eastwest;rotatable=0;whiteSpace=wrap;html=1;" vertex="1" parent="VORAo5SVlrjPvrXH9UD6-11">
          <mxGeometry y="30" width="210" height="140" as="geometry" />
        </mxCell>
        <mxCell id="VORAo5SVlrjPvrXH9UD6-18" value="Apartment" style="swimlane;fontStyle=0;childLayout=stackLayout;horizontal=1;startSize=30;horizontalStack=0;resizeParent=1;resizeParentMax=0;resizeLast=0;collapsible=1;marginBottom=0;whiteSpace=wrap;html=1;" vertex="1" parent="1">
          <mxGeometry x="510" y="340" width="260" height="220" as="geometry" />
        </mxCell>
        <mxCell id="VORAo5SVlrjPvrXH9UD6-22" value="" style="endArrow=none;html=1;rounded=0;entryX=1;entryY=0.5;entryDx=0;entryDy=0;exitX=0;exitY=0.5;exitDx=0;exitDy=0;" edge="1" parent="VORAo5SVlrjPvrXH9UD6-18" source="VORAo5SVlrjPvrXH9UD6-19" target="VORAo5SVlrjPvrXH9UD6-19">
          <mxGeometry width="50" height="50" relative="1" as="geometry">
            <mxPoint x="67" y="135" as="sourcePoint" />
            <mxPoint x="117" y="85" as="targetPoint" />
          </mxGeometry>
        </mxCell>
        <mxCell id="VORAo5SVlrjPvrXH9UD6-19" value="&lt;span class=&quot;hljs-operator&quot;&gt;-&lt;/span&gt; floor: &lt;span class=&quot;hljs-type&quot;&gt;int&lt;/span&gt;&amp;nbsp;&lt;br&gt;&lt;span class=&quot;hljs-operator&quot;&gt;-&lt;/span&gt; hasParkingLot: &lt;span class=&quot;hljs-type&quot;&gt;boolean&lt;/span&gt;&amp;nbsp;&lt;br&gt;&lt;br&gt;&lt;br&gt;&lt;br&gt;&amp;nbsp;&lt;span class=&quot;hljs-operator&quot;&gt;+&lt;/span&gt; Apartment(&lt;span class=&quot;hljs-keyword&quot;&gt;double&lt;/span&gt;, &lt;span class=&quot;hljs-type&quot;&gt;int&lt;/span&gt;, String, &lt;span class=&quot;hljs-keyword&quot;&gt;double&lt;/span&gt;, &lt;span class=&quot;hljs-type&quot;&gt;int&lt;/span&gt;, &lt;span class=&quot;hljs-type&quot;&gt;boolean&lt;/span&gt;)&amp;nbsp;&lt;div&gt;&lt;br&gt;&amp;nbsp;&lt;span class=&quot;hljs-operator&quot;&gt;+&lt;/span&gt; display(): void&amp;nbsp;&lt;/div&gt;" style="text;strokeColor=none;fillColor=none;align=left;verticalAlign=middle;spacingLeft=4;spacingRight=4;overflow=hidden;points=[[0,0.5],[1,0.5]];portConstraint=eastwest;rotatable=0;whiteSpace=wrap;html=1;" vertex="1" parent="VORAo5SVlrjPvrXH9UD6-18">
          <mxGeometry y="30" width="260" height="190" as="geometry" />
        </mxCell>
        <mxCell id="VORAo5SVlrjPvrXH9UD6-23" value="" style="shape=link;html=1;rounded=0;entryX=0.406;entryY=1.037;entryDx=0;entryDy=0;entryPerimeter=0;width=2;" edge="1" parent="1" target="VORAo5SVlrjPvrXH9UD6-15">
          <mxGeometry width="100" relative="1" as="geometry">
            <mxPoint x="240" y="340" as="sourcePoint" />
            <mxPoint x="240" y="280" as="targetPoint" />
            <Array as="points">
              <mxPoint x="240" y="320" />
              <mxPoint x="410" y="320" />
            </Array>
          </mxGeometry>
        </mxCell>
        <mxCell id="VORAo5SVlrjPvrXH9UD6-24" value="" style="shape=link;html=1;rounded=0;entryX=0.455;entryY=-0.006;entryDx=0;entryDy=0;entryPerimeter=0;width=0;exitX=0.591;exitY=1.026;exitDx=0;exitDy=0;exitPerimeter=0;" edge="1" parent="1" source="VORAo5SVlrjPvrXH9UD6-15" target="VORAo5SVlrjPvrXH9UD6-18">
          <mxGeometry width="100" relative="1" as="geometry">
            <mxPoint x="440" y="340" as="sourcePoint" />
            <mxPoint x="612" y="293" as="targetPoint" />
            <Array as="points">
              <mxPoint x="452" y="320" />
              <mxPoint x="628" y="320" />
            </Array>
          </mxGeometry>
        </mxCell>
        <mxCell id="VORAo5SVlrjPvrXH9UD6-25" value="" style="endArrow=none;html=1;rounded=0;exitX=0.5;exitY=0;exitDx=0;exitDy=0;entryX=0.52;entryY=1.003;entryDx=0;entryDy=0;entryPerimeter=0;" edge="1" parent="1" source="VORAo5SVlrjPvrXH9UD6-11" target="VORAo5SVlrjPvrXH9UD6-19">
          <mxGeometry width="50" height="50" relative="1" as="geometry">
            <mxPoint x="600" y="610" as="sourcePoint" />
            <mxPoint x="650" y="560" as="targetPoint" />
          </mxGeometry>
        </mxCell>
        <mxCell id="VORAo5SVlrjPvrXH9UD6-27" value="RealEstateAgency&amp;nbsp; &amp;nbsp; &amp;nbsp;" style="swimlane;fontStyle=0;childLayout=stackLayout;horizontal=1;startSize=30;horizontalStack=0;resizeParent=1;resizeParentMax=0;resizeLast=0;collapsible=1;marginBottom=0;whiteSpace=wrap;html=1;" vertex="1" parent="1">
          <mxGeometry x="170" y="650" width="220" height="210" as="geometry" />
        </mxCell>
        <mxCell id="VORAo5SVlrjPvrXH9UD6-28" value="&lt;span class=&quot;hljs-operator&quot;&gt;-&lt;/span&gt; properties: Property[]&lt;br&gt;&amp;nbsp;&lt;span class=&quot;hljs-operator&quot;&gt;-&lt;/span&gt; propertyCount: &lt;span class=&quot;hljs-type&quot;&gt;int&lt;/span&gt;&amp;nbsp;&lt;br&gt;&amp;nbsp;&lt;span class=&quot;hljs-operator&quot;&gt;-&lt;/span&gt; MAX_PROPERTIES: &lt;span class=&quot;hljs-keyword&quot;&gt;final&lt;/span&gt; &lt;span class=&quot;hljs-type&quot;&gt;int&lt;/span&gt; &lt;span class=&quot;hljs-operator&quot;&gt;=&lt;/span&gt; &lt;span class=&quot;hljs-number&quot;&gt;100&lt;/span&gt;&amp;nbsp;&lt;div&gt;&lt;br&gt;&lt;br&gt;&amp;nbsp;&lt;span class=&quot;hljs-operator&quot;&gt;+&lt;/span&gt; RealEstateAgency()&amp;nbsp;&lt;br&gt;&amp;nbsp;&lt;span class=&quot;hljs-operator&quot;&gt;+&lt;/span&gt; addProperty(Property): void&amp;nbsp;&lt;br&gt;&amp;nbsp;&lt;span class=&quot;hljs-operator&quot;&gt;+&lt;/span&gt; removeProperty(&lt;span class=&quot;hljs-type&quot;&gt;int&lt;/span&gt;): void&amp;nbsp;&lt;br&gt;&amp;nbsp;&lt;span class=&quot;hljs-operator&quot;&gt;+&lt;/span&gt; displayProperties(): void&amp;nbsp;&lt;/div&gt;" style="text;strokeColor=none;fillColor=none;align=left;verticalAlign=middle;spacingLeft=4;spacingRight=4;overflow=hidden;points=[[0,0.5],[1,0.5]];portConstraint=eastwest;rotatable=0;whiteSpace=wrap;html=1;" vertex="1" parent="VORAo5SVlrjPvrXH9UD6-27">
          <mxGeometry y="30" width="220" height="180" as="geometry" />
        </mxCell>
        <mxCell id="VORAo5SVlrjPvrXH9UD6-31" value="" style="endArrow=none;html=1;rounded=0;exitX=0;exitY=0.5;exitDx=0;exitDy=0;entryX=1;entryY=0.5;entryDx=0;entryDy=0;" edge="1" parent="VORAo5SVlrjPvrXH9UD6-27" source="VORAo5SVlrjPvrXH9UD6-28" target="VORAo5SVlrjPvrXH9UD6-28">
          <mxGeometry width="50" height="50" relative="1" as="geometry">
            <mxPoint x="50" y="90" as="sourcePoint" />
            <mxPoint x="100" y="40" as="targetPoint" />
          </mxGeometry>
        </mxCell>
      </root>
    </mxGraphModel>
  </diagram>
</mxfile>
